<svg width="62" height="102" viewBox="0 0 62 102" fill="none" xmlns="http://www.w3.org/2000/svg">
<path d="M30.2177 32.5C25.6962 27.5 19.366 14 30.2177 0C35.6435 5.33333 43.2397 19.3 30.2177 32.5Z" fill="white"/>
<path d="M42.4479 34.3728C42.7985 29.4206 46.4282 19.5205 58.1419 19.5381C58.0431 25.1765 54.766 36.0371 42.4479 34.3728Z" fill="white"/>
<path d="M18.7798 35.802C14.2757 35.9427 4.95953 32.9938 3.72777 20.072C8.82394 19.5805 18.969 22.0383 18.7798 35.802Z" fill="white"/>
<ellipse cx="30.6699" cy="43" rx="6.33014" ry="7" fill="white"/>
<path d="M35.6436 72C35.2819 83.6 41.8231 96.5 45.1389 101.5C37.9045 97.1 32.78 87.3333 31.122 83C25.6962 95 19.5168 99.6667 17.1053 100.5C23.978 86.9 25.6962 75.8333 25.6962 72C28.59 61.6 17.5574 49 11.6794 44C21.0842 43.2 28.5598 54.3333 31.122 60C35.4627 47.2 44.9881 44 49.2082 44C37.2713 52.4 35.1915 66.1667 35.6436 72Z" fill="white"/>
</svg>
